<mxfile host="app.diagrams.net" modified="2024-04-06T10:11:53.137Z" agent="Mozilla/5.0 (Windows NT 10.0; Win64; x64) AppleWebKit/537.36 (KHTML, like Gecko) Chrome/122.0.0.0 Safari/537.36 OPR/108.0.0.0" etag="7a9K3osoQJ9vIKHEXTkU" version="24.2.2" type="github">
  <diagram name="Page-1" id="uZWPDC6XUnTl8p8Llp1z">
    <mxGraphModel dx="996" dy="559" grid="1" gridSize="10" guides="1" tooltips="1" connect="1" arrows="1" fold="1" page="1" pageScale="1" pageWidth="850" pageHeight="1100" math="0" shadow="0">
      <root>
        <mxCell id="0" />
        <mxCell id="1" parent="0" />
        <mxCell id="6MxEN1T-Fx8d5fhNnOGV-1" value="" style="ellipse;html=1;shape=startState;fillColor=#000000;strokeColor=#ff0000;" vertex="1" parent="1">
          <mxGeometry x="270" y="20" width="30" height="30" as="geometry" />
        </mxCell>
        <mxCell id="6MxEN1T-Fx8d5fhNnOGV-2" value="" style="edgeStyle=orthogonalEdgeStyle;html=1;verticalAlign=bottom;endArrow=open;endSize=8;strokeColor=#ff0000;rounded=0;" edge="1" source="6MxEN1T-Fx8d5fhNnOGV-1" parent="1">
          <mxGeometry relative="1" as="geometry">
            <mxPoint x="285" y="110" as="targetPoint" />
          </mxGeometry>
        </mxCell>
        <mxCell id="6MxEN1T-Fx8d5fhNnOGV-3" value="User Login" style="rounded=1;whiteSpace=wrap;html=1;arcSize=40;fontColor=#000000;fillColor=#ffffc0;strokeColor=#ff0000;" vertex="1" parent="1">
          <mxGeometry x="225" y="110" width="120" height="40" as="geometry" />
        </mxCell>
        <mxCell id="6MxEN1T-Fx8d5fhNnOGV-4" value="" style="edgeStyle=orthogonalEdgeStyle;html=1;verticalAlign=bottom;endArrow=open;endSize=8;strokeColor=#ff0000;rounded=0;" edge="1" source="6MxEN1T-Fx8d5fhNnOGV-3" parent="1">
          <mxGeometry relative="1" as="geometry">
            <mxPoint x="285" y="210" as="targetPoint" />
          </mxGeometry>
        </mxCell>
        <mxCell id="6MxEN1T-Fx8d5fhNnOGV-5" value="If user is" style="rhombus;whiteSpace=wrap;html=1;fontColor=#000000;fillColor=#ffffc0;strokeColor=#ff0000;" vertex="1" parent="1">
          <mxGeometry x="245" y="210" width="80" height="40" as="geometry" />
        </mxCell>
        <mxCell id="6MxEN1T-Fx8d5fhNnOGV-6" value="Pharmacy Manager" style="edgeStyle=orthogonalEdgeStyle;html=1;align=left;verticalAlign=bottom;endArrow=open;endSize=8;strokeColor=#ff0000;rounded=0;" edge="1" source="6MxEN1T-Fx8d5fhNnOGV-5" parent="1">
          <mxGeometry x="-1" relative="1" as="geometry">
            <mxPoint x="460" y="230" as="targetPoint" />
          </mxGeometry>
        </mxCell>
        <mxCell id="6MxEN1T-Fx8d5fhNnOGV-7" value="Cashier" style="edgeStyle=orthogonalEdgeStyle;html=1;align=left;verticalAlign=top;endArrow=open;endSize=8;strokeColor=#ff0000;rounded=0;" edge="1" source="6MxEN1T-Fx8d5fhNnOGV-5" parent="1">
          <mxGeometry x="-1" relative="1" as="geometry">
            <mxPoint x="285" y="310" as="targetPoint" />
          </mxGeometry>
        </mxCell>
        <mxCell id="6MxEN1T-Fx8d5fhNnOGV-17" style="edgeStyle=orthogonalEdgeStyle;rounded=0;orthogonalLoop=1;jettySize=auto;html=1;entryX=0;entryY=0.5;entryDx=0;entryDy=0;" edge="1" parent="1" source="6MxEN1T-Fx8d5fhNnOGV-8" target="6MxEN1T-Fx8d5fhNnOGV-14">
          <mxGeometry relative="1" as="geometry" />
        </mxCell>
        <mxCell id="6MxEN1T-Fx8d5fhNnOGV-8" value="Choose action" style="rounded=1;whiteSpace=wrap;html=1;arcSize=40;fontColor=#000000;fillColor=#ffffc0;strokeColor=#ff0000;" vertex="1" parent="1">
          <mxGeometry x="460" y="210" width="120" height="40" as="geometry" />
        </mxCell>
        <mxCell id="6MxEN1T-Fx8d5fhNnOGV-29" style="edgeStyle=orthogonalEdgeStyle;rounded=0;orthogonalLoop=1;jettySize=auto;html=1;entryX=0;entryY=0.5;entryDx=0;entryDy=0;" edge="1" parent="1" source="6MxEN1T-Fx8d5fhNnOGV-10" target="6MxEN1T-Fx8d5fhNnOGV-22">
          <mxGeometry relative="1" as="geometry" />
        </mxCell>
        <mxCell id="6MxEN1T-Fx8d5fhNnOGV-10" value="Process sale details" style="rounded=1;whiteSpace=wrap;html=1;arcSize=40;fontColor=#000000;fillColor=#ffffc0;strokeColor=#ff0000;" vertex="1" parent="1">
          <mxGeometry x="225" y="310" width="120" height="40" as="geometry" />
        </mxCell>
        <mxCell id="6MxEN1T-Fx8d5fhNnOGV-28" style="edgeStyle=orthogonalEdgeStyle;rounded=0;orthogonalLoop=1;jettySize=auto;html=1;entryX=0.5;entryY=0;entryDx=0;entryDy=0;" edge="1" parent="1" source="6MxEN1T-Fx8d5fhNnOGV-12" target="6MxEN1T-Fx8d5fhNnOGV-18">
          <mxGeometry relative="1" as="geometry" />
        </mxCell>
        <mxCell id="6MxEN1T-Fx8d5fhNnOGV-12" value="Prompt for details" style="rounded=1;whiteSpace=wrap;html=1;arcSize=40;fontColor=#000000;fillColor=#ffffc0;strokeColor=#ff0000;" vertex="1" parent="1">
          <mxGeometry x="810" y="210" width="120" height="40" as="geometry" />
        </mxCell>
        <mxCell id="6MxEN1T-Fx8d5fhNnOGV-14" value="Action" style="rhombus;whiteSpace=wrap;html=1;fontColor=#000000;fillColor=#ffffc0;strokeColor=#ff0000;" vertex="1" parent="1">
          <mxGeometry x="630" y="210" width="80" height="40" as="geometry" />
        </mxCell>
        <mxCell id="6MxEN1T-Fx8d5fhNnOGV-15" value="Update inventory" style="edgeStyle=orthogonalEdgeStyle;html=1;align=left;verticalAlign=bottom;endArrow=open;endSize=8;strokeColor=#ff0000;rounded=0;" edge="1" source="6MxEN1T-Fx8d5fhNnOGV-14" parent="1">
          <mxGeometry x="-1" relative="1" as="geometry">
            <mxPoint x="810" y="230" as="targetPoint" />
          </mxGeometry>
        </mxCell>
        <mxCell id="6MxEN1T-Fx8d5fhNnOGV-16" value="Add new item" style="edgeStyle=orthogonalEdgeStyle;html=1;align=left;verticalAlign=top;endArrow=open;endSize=8;strokeColor=#ff0000;rounded=0;" edge="1" source="6MxEN1T-Fx8d5fhNnOGV-14" parent="1">
          <mxGeometry x="-1" relative="1" as="geometry">
            <mxPoint x="670" y="310" as="targetPoint" />
          </mxGeometry>
        </mxCell>
        <mxCell id="6MxEN1T-Fx8d5fhNnOGV-31" style="edgeStyle=orthogonalEdgeStyle;rounded=0;orthogonalLoop=1;jettySize=auto;html=1;" edge="1" parent="1" source="6MxEN1T-Fx8d5fhNnOGV-18" target="6MxEN1T-Fx8d5fhNnOGV-21">
          <mxGeometry relative="1" as="geometry" />
        </mxCell>
        <mxCell id="6MxEN1T-Fx8d5fhNnOGV-18" value="Update the inventory" style="rounded=1;whiteSpace=wrap;html=1;arcSize=40;fontColor=#000000;fillColor=#ffffc0;strokeColor=#ff0000;" vertex="1" parent="1">
          <mxGeometry x="810" y="420" width="120" height="40" as="geometry" />
        </mxCell>
        <mxCell id="6MxEN1T-Fx8d5fhNnOGV-21" value="" style="ellipse;html=1;shape=endState;fillColor=#000000;strokeColor=#ff0000;" vertex="1" parent="1">
          <mxGeometry x="610" y="425" width="30" height="30" as="geometry" />
        </mxCell>
        <mxCell id="6MxEN1T-Fx8d5fhNnOGV-32" style="edgeStyle=orthogonalEdgeStyle;rounded=0;orthogonalLoop=1;jettySize=auto;html=1;" edge="1" parent="1" source="6MxEN1T-Fx8d5fhNnOGV-22" target="6MxEN1T-Fx8d5fhNnOGV-18">
          <mxGeometry relative="1" as="geometry" />
        </mxCell>
        <mxCell id="6MxEN1T-Fx8d5fhNnOGV-22" value="Enter update details" style="rounded=1;whiteSpace=wrap;html=1;arcSize=40;fontColor=#000000;fillColor=#ffffc0;strokeColor=#ff0000;" vertex="1" parent="1">
          <mxGeometry x="610" y="310" width="120" height="40" as="geometry" />
        </mxCell>
      </root>
    </mxGraphModel>
  </diagram>
</mxfile>
